<?xml version="1.0" encoding="utf-8"?>
<!-- Generator: Adobe Illustrator 16.0.4, SVG Export Plug-In . SVG Version: 6.00 Build 0)  -->
<!DOCTYPE svg PUBLIC "-//W3C//DTD SVG 1.1//EN" "http://www.w3.org/Graphics/SVG/1.1/DTD/svg11.dtd">
<svg version="1.1" id="Layer_1" xmlns="http://www.w3.org/2000/svg" xmlns:xlink="http://www.w3.org/1999/xlink" x="0px" y="0px"
	 width="266.5px" height="266.5px" viewBox="0 0 266.5 266.5" enable-background="new 0 0 266.5 266.5" xml:space="preserve">
<g id="Layer_2">
	<circle fill="#FFFFFF" stroke="#000000" stroke-miterlimit="10" cx="132.812" cy="145.375" r="102.688"/>
</g>
<g id="Layer_1_1_">
	<g id="Your_Icon">
		<g>
			<path fill="#FFFFFF" stroke="#000000" stroke-miterlimit="10" d="M147.547,161.357l-1.9,1.85
				c14.053,1.568,23.861,6.217,23.861,12.164c-0.002,7.742-15.742,14.77-37.233,14.77c-0.009,0-0.02,0-0.026,0
				c-0.011,0-0.02,0-0.029,0c-21.49,0-37.23-7.025-37.23-14.768c0-5.949,9.809-10.596,23.859-12.166l-1.899-1.848
				c-18.917,1.873-29.978,7.916-29.978,17.258c0,12.6,20.266,21.307,45.278,21.307c25.015,0,45.28-8.707,45.28-21.307
				C177.525,169.275,166.465,163.23,147.547,161.357z"/>
			<path fill="#FFFFFF" stroke="#000000" stroke-miterlimit="10" d="M132.248,180.59c0.004,0.012,0.026,0.047,0.026,0.047
				s30.255-46.427,30.255-61.69c0-22.459-15.332-32.231-30.283-32.263c-14.951,0.031-30.287,9.803-30.287,32.263
				c0,15.263,30.257,61.69,30.257,61.69S132.241,180.602,132.248,180.59z M121.759,117.68c0-5.794,4.695-10.489,10.489-10.489
				c5.793,0,10.49,4.695,10.49,10.489c0,5.793-4.697,10.488-10.49,10.488C126.454,128.169,121.759,123.473,121.759,117.68z"/>
		</g>
	</g>
</g>
</svg>
