<?xml version="1.0" encoding="utf-8"?>
<!-- Generator: Adobe Illustrator 16.0.4, SVG Export Plug-In . SVG Version: 6.00 Build 0)  -->
<!DOCTYPE svg PUBLIC "-//W3C//DTD SVG 1.1//EN" "http://www.w3.org/Graphics/SVG/1.1/DTD/svg11.dtd">
<svg version="1.1" xmlns="http://www.w3.org/2000/svg" xmlns:xlink="http://www.w3.org/1999/xlink" x="0px" y="0px"
	 width="227.333px" height="234.667px" viewBox="0 0 227.333 234.667" enable-background="new 0 0 227.333 234.667"
	 xml:space="preserve">
<g id="Layer_1">
	<g>
		<polygon fill="#64A7DB" points="136.274,109.791 128.717,105.574 96.075,87.397 95.282,86.949 93.087,95.157 121.26,111.025 
			134.446,163.72 142.235,168.372 157.301,121.515 154.03,119.681 		"/>
		<polygon fill="#64A7DB" points="140.807,94.732 107.057,75.864 104.457,84.497 138.231,103.302 		"/>
		<path fill="#64A7DB" d="M114.334,9.334c-60.567,0-109.667,49.1-109.667,109.667s49.1,109.667,109.667,109.667
			c60.567,0,109.667-49.1,109.667-109.667S174.902,9.334,114.334,9.334z M163.612,123.524l-15.064,46.877l-2.551,7.933l-7.156-4.278
			l-0.566-0.342l-0.723,2.452l-57.864-32.577L63.398,78.459l10.912,6.14c1.088-5.541-0.032-6.841-0.341-7.086
			c-1.437-1.126-1.687-3.206-0.554-4.648c1.133-1.436,3.212-1.68,4.648-0.554c4.152,3.273,3.797,9.534,2.285,15.69l6.78,3.813
			l1.763-6.57l2.188-8.209l6.895,3.844l4.507-15.458l29.055,16.354c3.051-1.403,7.314-4.368,7.43-6.74l0.039-0.805
			c0.256-5.511,0.516-11.215,6.051-14.17c1.623-0.862,3.619-0.252,4.48,1.365c0.863,1.608,0.258,3.618-1.365,4.48
			c-2.021,1.075-2.305,3.219-2.549,8.627l-0.037,0.824c-0.221,4.565-4.057,8.061-7.314,10.211l22.082,12.424l-4.43,15.168
			l4.611,2.562l4.738,2.645L163.612,123.524z"/>
	</g>
</g>
<g id="Layer_2">
</g>
</svg>
